<!-- Generated by IcoMoon.io -->
<svg version="1.1" xmlns="http://www.w3.org/2000/svg" width="82" height="32" viewBox="0 0 82 32">
<path fill="#fff" d="M9.168 32c1.298 0 2.51-0.268 3.638-0.804s2.104-1.285 2.929-2.247v2.466h5.584v-31.416h-5.584v14.995c-0.74-0.901-1.667-1.604-2.783-2.11s-2.328-0.758-3.638-0.758c-1.807 0-3.411 0.435-4.811 1.306s-2.501 2.052-3.301 3.543c-0.8 1.492-1.201 3.187-1.201 5.087 0 1.936 0.412 3.653 1.237 5.151s1.931 2.67 3.32 3.516c1.389 0.846 2.926 1.269 4.611 1.269zM10.841 27.233c-0.958 0-1.813-0.222-2.565-0.667s-1.34-1.053-1.764-1.826c-0.424-0.773-0.637-1.653-0.637-2.639 0-0.998 0.218-1.89 0.655-2.676s1.028-1.403 1.774-1.854c0.746-0.451 1.598-0.676 2.556-0.676 0.97 0 1.831 0.225 2.583 0.676s1.343 1.065 1.774 1.845c0.43 0.779 0.646 1.668 0.646 2.667 0 0.986-0.215 1.869-0.646 2.648s-1.022 1.391-1.774 1.836c-0.752 0.444-1.619 0.667-2.601 0.667zM31.869 8.374c-0.497 0.298-1.049 0.448-1.655 0.448s-1.161-0.149-1.664-0.448c-0.503-0.298-0.906-0.703-1.21-1.215s-0.455-1.072-0.455-1.68 0.152-1.163 0.455-1.662c0.303-0.499 0.706-0.898 1.21-1.196s1.058-0.447 1.664-0.447c0.606 0 1.158 0.149 1.655 0.447s0.894 0.697 1.191 1.196c0.297 0.499 0.446 1.053 0.446 1.662s-0.149 1.169-0.446 1.68c-0.297 0.511-0.694 0.916-1.191 1.215zM32.996 31.416v-18.703h-5.584v18.703h5.584zM44.711 20.347v11.068h-5.584v-18.703h5.584v2.082c0.715-0.804 1.61-1.449 2.683-1.936s2.259-0.731 3.556-0.731c1.431 0 2.689 0.314 3.774 0.941s1.937 1.498 2.556 2.612c0.618 1.114 0.928 2.414 0.928 3.9v11.836h-5.584v-10.648c0-1.339-0.349-2.384-1.046-3.132s-1.652-1.123-2.865-1.123c-0.825 0-1.537 0.167-2.137 0.502s-1.061 0.792-1.382 1.37c-0.321 0.578-0.482 1.233-0.482 1.963zM72.905 32c1.965 0 3.747-0.426 5.348-1.279s2.838-2.033 3.71-3.543l-4.020-2.027c-0.691 0.828-1.41 1.431-2.156 1.808s-1.604 0.566-2.574 0.566c-1.031 0-1.934-0.198-2.71-0.594s-1.379-0.947-1.81-1.653c-0.43-0.706-0.646-1.534-0.646-2.484h14.279c0.037-0.317 0.058-0.533 0.064-0.648s0.009-0.253 0.009-0.411c0-1.912-0.41-3.586-1.228-5.023s-1.958-2.56-3.42-3.37c-1.461-0.81-3.162-1.215-5.102-1.215-1.455 0-2.807 0.253-4.056 0.758s-2.346 1.212-3.292 2.119c-0.946 0.907-1.683 1.963-2.21 3.169s-0.791 2.502-0.791 3.89c0 1.887 0.467 3.58 1.401 5.078s2.198 2.682 3.793 3.553 3.398 1.306 5.411 1.306zM68.248 19.69h8.658c-0.121-0.718-0.379-1.339-0.773-1.863s-0.894-0.925-1.501-1.205c-0.606-0.28-1.292-0.42-2.055-0.42-0.812 0-1.528 0.14-2.146 0.42s-1.116 0.682-1.492 1.205-0.606 1.145-0.691 1.863z"></path>
</svg>
